<?xml version="1.0" standalone="no"?>
<!DOCTYPE svg PUBLIC "-//W3C//DTD SVG 20010904//EN"
 "http://www.w3.org/TR/2001/REC-SVG-20010904/DTD/svg10.dtd">
<svg version="1.0" xmlns="http://www.w3.org/2000/svg"
 width="11212.000000pt" height="10244.000000pt" viewBox="0 0 11212.000000 10244.000000"
 preserveAspectRatio="xMidYMid meet">

<g transform="translate(0.000000,10244.000000) scale(0.100000,-0.100000)"
fill="#000000" stroke="none">
<path d="M54670 102050 c-512 -62 -943 -267 -1309 -624 -198 -194 -292 -322
-427 -581 -119 -228 -214 -487 -285 -780 -160 -661 -314 -1021 -592 -1385
-151 -198 -245 -290 -405 -401 l-73 -51 -1287 337 c-708 186 -1291 341 -1295
345 -4 4 -55 184 -113 401 -186 697 -237 856 -350 1082 -323 643 -868 1104
-1496 1266 -303 78 -591 87 -930 30 -445 -76 -908 -300 -1226 -594 -138 -128
-320 -377 -436 -595 -171 -325 -270 -666 -316 -1090 -46 -436 -110 -680 -218
-835 -47 -69 -255 -277 -322 -322 -103 -70 -242 -121 -382 -143 -43 -6 -216
-13 -385 -14 -292 -3 -313 -4 -413 -28 -391 -96 -699 -295 -923 -595 -224
-302 -359 -606 -441 -998 -120 -569 -314 -964 -633 -1290 -92 -94 -339 -313
-436 -387 -75 -57 -151 -144 -227 -256 -30 -45 -38 -52 -61 -47 -22 5 -30 -1
-61 -48 -51 -76 -147 -187 -162 -187 -26 0 -317 137 -776 365 -607 302 -794
376 -1078 426 -148 27 -476 37 -619 20 -289 -36 -548 -124 -802 -273 -90 -54
-128 -85 -251 -208 -151 -151 -267 -298 -392 -495 -128 -203 -358 -688 -598
-1260 -110 -263 -173 -392 -245 -500 -79 -119 -192 -244 -291 -322 -48 -37
-122 -96 -165 -130 -301 -242 -610 -364 -1064 -423 -484 -62 -825 -156 -1160
-320 -203 -99 -286 -154 -408 -270 -322 -306 -571 -722 -726 -1218 -65 -205
-145 -313 -364 -489 -364 -293 -609 -585 -781 -931 -295 -593 -321 -1235 -77
-1931 61 -174 82 -258 116 -461 14 -85 28 -162 30 -171 4 -11 -12 -24 -56 -44
-52 -26 -60 -33 -56 -53 4 -21 -12 -32 -204 -128 -115 -57 -213 -104 -217
-104 -5 0 -45 46 -89 103 -45 56 -118 147 -163 202 -45 55 -130 172 -190 260
-197 290 -384 500 -589 663 -303 242 -653 389 -1026 432 -553 63 -1317 -126
-1656 -409 -356 -297 -600 -686 -754 -1201 -26 -85 -57 -184 -70 -220 -98
-276 -260 -538 -461 -749 -159 -167 -258 -243 -675 -514 -212 -137 -441 -253
-770 -387 -275 -112 -442 -198 -560 -287 -476 -358 -788 -878 -904 -1507 -43
-236 -57 -396 -65 -751 -7 -329 -8 -343 -34 -430 -53 -180 -196 -436 -348
-623 -139 -172 -352 -359 -493 -433 -33 -18 -104 -61 -158 -96 -54 -36 -151
-91 -216 -123 -262 -130 -441 -260 -667 -485 -445 -444 -659 -936 -705 -1621
-6 -93 -8 -217 -5 -275 8 -130 -8 -220 -59 -328 -60 -126 -114 -191 -248 -297
-141 -113 -343 -312 -441 -433 -278 -347 -441 -741 -497 -1196 -18 -148 -15
-462 6 -654 46 -425 -22 -707 -232 -956 -83 -98 -190 -187 -376 -314 -89 -60
-200 -140 -247 -178 -105 -84 -286 -263 -368 -364 -249 -309 -409 -682 -473
-1101 -25 -169 -35 -497 -20 -668 47 -525 44 -579 -64 -1350 -24 -173 -47
-347 -51 -385 l-6 -71 -104 -53 c-57 -29 -104 -58 -104 -65 0 -6 -44 -33 -98
-58 -53 -25 -142 -79 -197 -118 -637 -462 -971 -1092 -1065 -2010 -6 -58 -15
-256 -20 -440 -24 -803 -104 -1329 -285 -1865 -108 -324 -222 -562 -441 -930
-253 -425 -490 -882 -943 -1820 -194 -402 -431 -867 -556 -1090 -224 -402
-439 -629 -697 -737 -40 -17 -98 -48 -128 -68 -129 -87 -320 -163 -500 -197
-111 -21 -390 -22 -1270 -3 -1315 28 -5319 22 -6800 -10 -547 -12 -733 -35
-1424 -180 -186 -38 -340 -70 -342 -70 -2 0 -4 -5825 -4 -12945 l0 -12944 110
-35 c245 -78 526 -127 900 -157 95 -8 1661 -12 5235 -14 4683 -2 5106 -4 5177
-19 143 -31 245 -75 355 -153 35 -24 81 -50 103 -58 23 -8 74 -31 113 -52 87
-46 228 -181 304 -293 28 -41 212 -340 410 -665 1234 -2024 2356 -3830 3568
-5740 343 -541 390 -612 475 -720 125 -159 354 -375 463 -440 117 -68 410
-156 642 -191 98 -15 179 -19 440 -19 280 0 352 3 575 27 284 31 545 51 910
70 351 19 2579 18 2700 0 296 -46 623 -179 935 -382 285 -186 360 -240 606
-438 l256 -206 -155 -170 c-279 -308 -356 -378 -490 -452 -37 -21 -93 -57
-125 -81 -110 -84 -210 -128 -582 -252 -702 -234 -1372 -430 -2279 -666 -384
-100 -554 -151 -720 -217 -264 -105 -374 -173 -561 -350 -392 -370 -622 -860
-700 -1488 -20 -164 -20 -453 1 -612 75 -584 383 -1110 884 -1510 204 -162
2025 -1485 5500 -3994 2507 -1811 2396 -1732 2616 -1853 245 -136 485 -228
722 -278 114 -24 148 -27 337 -27 224 -1 278 5 475 54 311 77 584 204 1068
494 356 214 606 353 907 506 828 420 1646 708 2475 874 96 19 189 40 205 46
78 31 76 31 1304 -255 179 -41 326 -75 328 -75 2 0 -8 -22 -22 -50 -14 -27
-25 -54 -25 -59 0 -5 17 -12 38 -16 l39 -6 -62 -157 c-34 -86 -86 -220 -115
-297 -107 -285 -198 -443 -329 -573 -370 -366 -1053 -919 -1881 -1522 -304
-221 -407 -299 -505 -384 -432 -373 -696 -730 -836 -1135 -97 -280 -141 -540
-143 -836 0 -211 10 -312 50 -508 96 -456 365 -920 712 -1223 202 -177 570
-350 954 -449 493 -127 3022 -722 4883 -1149 1315 -302 3397 -775 3770 -857
745 -164 1620 -260 1915 -210 297 50 565 177 840 398 140 112 359 338 676 698
367 417 762 856 1040 1155 414 445 1071 1094 1262 1247 184 147 464 303 754
419 197 79 728 257 832 279 225 46 417 -12 523 -159 20 -28 56 -72 78 -98 62
-69 80 -136 79 -283 -1 -282 -156 -839 -365 -1311 -208 -473 -442 -878 -949
-1649 -261 -396 -349 -542 -450 -740 -131 -258 -221 -513 -265 -755 -23 -125
-31 -416 -16 -551 55 -481 251 -969 528 -1312 65 -81 223 -223 348 -312 306
-219 688 -362 1077 -404 124 -14 391 -14 516 -1 191 21 1706 286 4762 835
3754 674 3641 654 4300 736 951 117 1228 177 1560 335 542 260 896 710 1100
1400 22 77 70 285 106 464 71 354 139 636 214 885 305 1008 787 1907 1465
2732 204 249 309 337 745 619 118 76 289 192 380 256 90 64 165 116 166 115 1
-1 25 -81 54 -177 28 -96 90 -281 136 -410 117 -322 135 -395 141 -555 5 -125
-32 -990 -62 -1490 -39 -621 -92 -1102 -175 -1569 -65 -367 -71 -417 -77 -672
-8 -359 23 -600 113 -874 249 -757 864 -1247 1757 -1400 360 -61 859 9 1222
173 304 137 1691 949 3185 1865 327 201 901 553 1275 782 812 497 1081 664
2305 1423 514 319 1165 722 1445 894 281 173 544 339 586 370 507 364 799 786
904 1308 46 227 50 335 37 923 -42 1848 -36 3670 13 3986 53 342 236 807 448
1137 197 308 453 454 697 398 169 -39 339 -201 444 -422 18 -40 75 -175 126
-302 413 -1027 711 -1927 926 -2795 81 -324 121 -464 178 -617 145 -389 321
-677 559 -915 166 -165 316 -272 538 -382 393 -195 859 -292 1239 -257 498 46
932 261 1349 666 318 310 626 711 1423 1855 314 452 941 1335 3392 4780 467
657 926 1302 1019 1433 223 314 311 455 418 672 99 202 168 392 205 570 35
165 44 447 20 615 -58 395 -204 728 -555 1264 -549 838 -920 1625 -1197 2541
-110 363 -234 893 -234 997 0 44 17 123 61 282 50 183 322 1150 375 1334 l15
53 32 -19 c18 -10 85 -51 150 -91 65 -40 221 -127 345 -193 493 -262 609 -347
860 -626 425 -476 827 -968 1417 -1737 385 -502 444 -574 595 -725 218 -219
409 -360 645 -475 502 -245 1039 -268 1642 -70 692 228 1156 715 1407 1476 64
197 70 222 240 994 74 336 196 879 270 1208 127 556 237 1035 765 3317 232
1005 367 1593 527 2310 121 541 144 624 200 730 74 141 191 248 329 299 142
53 64 52 2295 49 3637 -5 9250 3 9350 12 52 6 186 24 298 42 l202 32 0 13138
c0 7226 -3 13138 -6 13138 -3 0 -67 11 -143 25 -324 58 51 54 -5141 60 -5300
7 -4854 1 -5080 75 -419 137 -780 460 -974 871 -92 197 -125 321 -156 604 -60
541 -122 773 -469 1749 -346 974 -463 1396 -546 1976 -46 323 -59 519 -59 895
0 373 6 477 54 835 41 307 54 497 46 690 -16 423 -115 784 -300 1092 -94 157
-174 258 -325 409 -203 202 -408 349 -717 512 -66 34 -140 77 -165 94 -122 84
-267 289 -323 456 -38 112 -78 406 -131 957 -42 436 -67 644 -101 844 -104
623 -338 1081 -729 1428 -123 110 -256 201 -440 303 -183 101 -274 164 -360
251 -123 122 -199 257 -242 431 -26 103 -23 351 5 514 65 374 44 696 -67 1029
-121 361 -322 665 -686 1035 -187 190 -271 314 -332 490 -38 108 -40 212 -9
367 48 235 45 458 -10 708 -174 783 -836 1533 -1509 1710 -323 85 -532 197
-726 390 -203 201 -320 429 -376 735 -24 125 -23 429 0 585 84 552 -37 1084
-352 1552 -128 190 -231 308 -482 550 -296 286 -359 370 -414 553 -59 194
-173 453 -268 604 -332 533 -845 872 -1597 1056 -80 19 -167 42 -195 51 -131
43 -311 159 -392 253 -19 22 -66 96 -105 163 -276 479 -642 828 -1103 1054
-345 168 -673 244 -1058 244 -488 0 -927 -143 -1308 -426 -122 -91 -329 -295
-417 -411 -34 -45 -74 -90 -89 -101 -35 -24 -412 -207 -416 -201 -10 12 -97
178 -242 459 -199 386 -237 452 -433 755 -473 731 -559 843 -927 1210 -263
262 -338 356 -425 530 -71 144 -105 259 -150 512 -142 797 -298 1255 -560
1652 -371 562 -998 958 -1675 1057 -163 24 -458 24 -615 0 -810 -124 -1442
-640 -1754 -1433 -58 -149 -110 -331 -217 -763 -55 -222 -105 -412 -110 -421
-5 -9 -46 -30 -91 -47 -347 -125 -603 -72 -754 155 -42 63 -68 127 -94 225
-16 60 -28 79 -110 174 -222 257 -397 525 -555 849 -153 314 -250 570 -488
1290 -232 703 -319 929 -474 1240 -95 189 -271 494 -375 647 -131 194 -182
241 -593 548 -618 463 -882 680 -1189 980 -271 265 -417 437 -581 684 -224
337 -343 630 -440 1081 -194 907 -711 1468 -1625 1763 -69 22 -159 47 -200 56
-438 89 -944 8 -1425 -228 -269 -132 -480 -281 -674 -475 -275 -275 -434 -565
-506 -921 -97 -480 -280 -840 -614 -1207 -164 -181 -371 -359 -745 -640 -483
-364 -651 -507 -842 -716 -118 -130 -172 -158 -313 -165 -92 -4 -107 -2 -217
31 -315 95 -473 121 -744 121 -144 -1 -233 -5 -300 -17 -485 -83 -899 -320
-1320 -753 -175 -180 -264 -287 -481 -577 l-178 -239 -40 131 c-102 326 -129
415 -266 881 -80 272 -170 574 -200 670 -339 1091 -784 2110 -1226 2802 -302
474 -622 858 -1016 1221 -262 240 -314 335 -462 839 -241 821 -844 1516 -1577
1818 -136 55 -317 108 -464 135 -110 20 -452 29 -570 15z m40418 -46008 c-1
-4 -671 -832 -1487 -1840 l-1485 -1832 -674 0 -673 0 374 743 c206 408 623
1236 926 1840 l552 1097 1236 0 c679 0 1233 -4 1231 -8z m-31718 -5022 c785
-55 1365 -160 1905 -344 987 -335 1621 -917 1958 -1796 312 -814 363 -2011
121 -2850 -145 -503 -404 -950 -754 -1300 -381 -382 -905 -676 -1504 -845
l-98 -28 134 -47 c403 -139 694 -362 918 -705 148 -227 327 -630 480 -1080 49
-145 1501 -4867 1616 -5258 5 -16 -74 -17 -1593 -15 l-1598 3 -527 1990 c-651
2459 -609 2303 -680 2525 -286 886 -563 1194 -1168 1301 -110 19 -171 22 -522
26 l-398 5 0 -2926 0 -2926 -1520 0 -1520 0 0 7135 0 7135 1698 1 c933 1 1778
5 1877 9 231 10 986 4 1175 -10z m21130 0 c785 -55 1365 -160 1905 -344 987
-335 1621 -917 1958 -1796 312 -814 363 -2011 121 -2850 -145 -503 -404 -950
-754 -1300 -381 -382 -905 -676 -1504 -845 l-98 -28 134 -47 c403 -139 694
-362 918 -705 148 -227 327 -630 480 -1080 49 -145 1501 -4867 1616 -5258 5
-16 -74 -17 -1593 -15 l-1598 3 -527 1990 c-651 2459 -609 2303 -680 2525
-286 886 -563 1194 -1168 1301 -110 19 -171 22 -522 26 l-398 5 0 -2926 0
-2926 -1520 0 -1520 0 0 7135 0 7135 1698 1 c933 1 1778 5 1877 9 231 10 986
4 1175 -10z m-72552 -32 c4 -18 546 -2165 1203 -4771 737 -2923 1197 -4731
1201 -4720 7 18 2438 9507 2438 9517 0 3 990 6 2200 6 l2200 0 0 -7135 0
-7135 -1370 0 -1370 0 -1 5923 c0 3486 -4 5912 -10 5897 -4 -14 -711 -2671
-1569 -5905 -858 -3234 -1563 -5888 -1566 -5897 -5 -17 -60 -18 -967 -18
l-962 0 -1590 5908 -1590 5908 -3 -5908 -2 -5908 -1305 0 -1305 0 0 7135 0
7135 2180 0 2179 0 9 -32z m18357 -25 c9 -32 948 -3233 2086 -7113 1139 -3880
2072 -7065 2076 -7077 l5 -23 -1606 0 -1605 0 -10 38 c-6 20 -177 719 -381
1552 -204 833 -375 1532 -381 1553 l-10 37 -2164 0 -2164 0 -11 -37 c-6 -21
-190 -735 -409 -1588 l-397 -1550 -1507 -3 c-829 -1 -1507 0 -1507 3 0 3 986
3212 2190 7131 1205 3919 2190 7127 2190 7130 0 2 807 4 1794 4 l1795 0 16
-57z m9690 34 c886 -68 1557 -182 2195 -376 1028 -312 1895 -830 2495 -1491
524 -578 894 -1230 1163 -2050 315 -961 455 -2033 439 -3350 -6 -454 -11 -567
-42 -915 -120 -1336 -490 -2480 -1098 -3390 -1045 -1567 -2758 -2456 -5082
-2640 -408 -32 -629 -35 -2512 -35 l-1903 0 0 7135 0 7136 2063 -4 c1806 -3
2089 -6 2282 -20z m16195 -1167 l0 -1190 -2290 0 -2290 0 0 -1705 0 -1705
2165 0 2165 0 0 -1195 0 -1195 -2165 0 -2165 0 0 -1840 0 -1840 2400 0 2400 0
0 -1205 0 -1205 -3950 0 -3950 0 0 7135 0 7135 3840 0 3840 0 0 -1190z m21130
0 l0 -1190 -2290 0 -2290 0 0 -1705 0 -1705 2165 0 2165 0 0 -1195 0 -1195
-2165 0 -2165 0 0 -1840 0 -1840 2400 0 2400 0 0 -1205 0 -1205 -3950 0 -3950
0 0 7135 0 7135 3840 0 3840 0 0 -1190z m16550 -5945 l0 -7135 -1550 0 -1550
0 0 7135 0 7135 1550 0 1550 0 0 -7135z m9125 7078 c9 -32 948 -3233 2086
-7113 1139 -3880 2072 -7065 2076 -7077 l5 -23 -1606 0 -1605 0 -10 38 c-6 20
-177 719 -381 1552 -204 833 -375 1532 -381 1553 l-10 37 -2164 0 -2164 0 -11
-37 c-6 -21 -190 -735 -409 -1588 l-397 -1550 -1507 -3 c-829 -1 -1507 0
-1507 3 0 3 986 3212 2190 7131 1205 3919 2190 7127 2190 7130 0 2 807 4 1794
4 l1795 0 16 -57z m-4575 -18097 c91 -36 165 -69 165 -74 0 -15 -3429 -8792
-3435 -8792 -7 1 -2694 3856 -2694 3866 1 11 284 213 299 213 6 0 492 -691
1080 -1536 589 -845 1104 -1584 1146 -1644 l76 -108 1589 4069 c874 2238 1594
4070 1599 4070 6 0 84 -29 175 -64z m-44039 -2166 c307 -24 680 -88 964 -165
215 -59 636 -202 658 -224 7 -7 -81 -1560 -88 -1569 -2 -2 -52 25 -111 59
-358 206 -719 324 -1134 370 -171 19 -537 16 -695 -5 -968 -131 -1588 -817
-1780 -1969 -70 -424 -82 -973 -30 -1423 102 -876 423 -1510 961 -1893 98 -70
347 -196 465 -235 197 -66 382 -100 631 -118 532 -36 1106 108 1630 410 60 34
112 62 118 62 5 0 10 -20 10 -44 0 -53 66 -1375 75 -1492 l6 -82 -125 -46
c-349 -128 -763 -224 -1166 -270 -422 -49 -928 -49 -1315 0 -946 118 -1734
520 -2319 1184 -423 480 -708 1034 -875 1698 -113 452 -161 873 -161 1427 0
165 5 365 10 445 74 1067 390 1917 971 2610 122 146 361 380 504 494 133 106
350 251 500 334 435 240 984 396 1550 441 159 12 589 13 746 1z m25429 -14
c580 -73 1039 -238 1460 -524 165 -112 249 -181 404 -332 531 -517 877 -1193
1055 -2060 152 -739 173 -1676 55 -2489 -177 -1232 -713 -2179 -1544 -2727
-408 -269 -868 -430 -1430 -499 -173 -22 -646 -31 -840 -16 -643 49 -1168 218
-1630 526 -183 122 -276 200 -455 379 -272 274 -471 554 -644 911 -258 528
-409 1132 -473 1885 -20 241 -17 1073 5 1310 114 1209 480 2103 1127 2750 239
240 487 419 785 565 381 187 761 289 1250 334 151 14 726 5 875 -13z m-39495
-126 c658 -44 1148 -156 1541 -353 569 -285 893 -766 989 -1467 22 -162 31
-507 16 -666 -59 -634 -332 -1103 -831 -1427 -176 -113 -380 -202 -639 -277
l-75 -22 85 -27 c240 -78 436 -223 570 -424 108 -161 224 -420 332 -737 54
-156 967 -2976 967 -2985 0 -3 -448 -5 -995 -5 -547 0 -995 2 -995 5 0 20
-711 2540 -746 2645 -95 282 -187 455 -303 570 -168 168 -358 220 -796 220
l-205 0 0 -1720 0 -1720 -945 0 -945 0 0 4195 0 4195 1098 3 c603 1 1239 3
1412 4 173 2 383 -2 465 -7z m-6830 -10 c928 -46 1402 -189 1870 -567 438
-354 730 -877 834 -1499 80 -475 62 -1019 -49 -1459 -143 -569 -444 -1001
-910 -1305 -210 -137 -513 -265 -803 -340 -404 -104 -750 -140 -1348 -140
l-359 0 0 -1535 0 -1535 -965 0 -965 0 0 4195 0 4195 1248 0 c686 0 1337 -5
1447 -10z m15485 -690 l0 -700 -1425 0 -1425 0 0 -1000 0 -1000 1350 0 1350 0
0 -705 0 -705 -1350 0 -1350 0 0 -1080 0 -1080 1495 0 1495 0 0 -710 0 -710
-2460 0 -2460 0 0 4195 0 4195 2390 0 2390 0 0 -700z m10170 -3495 l0 -4195
-965 0 -965 0 0 4195 0 4195 965 0 965 0 0 -4195z m5679 4163 c10 -33 2577
-8308 2587 -8340 5 -17 -47 -18 -995 -18 l-1000 0 -9 33 c-5 17 -114 438 -242
935 l-234 902 -1346 0 -1346 0 -247 -912 c-136 -502 -250 -923 -254 -935 l-5
-23 -940 0 c-748 0 -939 3 -936 13 3 6 617 1894 1364 4194 l1359 4183 1117 0
1116 0 11 -32z m5951 22 c1540 -86 2593 -540 3230 -1391 413 -552 649 -1260
732 -2194 18 -201 18 -983 0 -1155 -65 -634 -173 -1070 -378 -1523 -105 -232
-269 -499 -434 -707 -179 -227 -485 -506 -745 -680 -513 -343 -1161 -571
-1907 -670 -405 -53 -391 -53 -1810 -57 l-1328 -4 0 4195 0 4196 1233 0 c677
0 1311 -5 1407 -10z m18060 -9085 c458 -704 833 -1285 834 -1291 1 -8 -6441
-8457 -6871 -9013 -10 -13 -12 365 -13 1777 l0 1792 185 0 185 0 2 -1236 3
-1236 3027 3965 3028 3966 -770 1182 c-424 650 -769 1186 -768 1191 2 5 71 53
153 107 111 73 153 96 161 87 6 -6 386 -587 844 -1291z m-64130 -513 c0 -4 11
-88 25 -186 14 -98 24 -180 23 -181 -2 -2 -860 -121 -1908 -265 -1047 -143
-1906 -262 -1907 -264 -3 -2 8518 -6098 8552 -6118 7 -4 659 213 1450 482 791
270 1440 488 1442 486 6 -5 122 -356 118 -356 -2 0 -690 -234 -1531 -520
-1522 -518 -1527 -520 -1554 -502 -98 63 -9468 6768 -9464 6772 3 3 1071 152
2372 331 1302 180 2370 327 2375 328 4 1 7 -2 7 -7z m52057 -9149 c707 -1472
957 -2001 949 -2009 -6 -7 -2344 -1288 -5196 -2849 -2852 -1561 -5188 -2839
-5192 -2842 -5 -2 -8 842 -8 1876 l0 1881 185 0 185 0 0 -1561 c0 -1307 2
-1560 14 -1556 13 5 9518 5207 9524 5212 2 2 -393 828 -877 1837 -485 1008
-881 1838 -881 1843 0 10 303 162 326 164 6 1 443 -898 971 -1996z m-38360
-105 l132 -133 -1579 -1595 c-869 -877 -1576 -1597 -1572 -1601 8 -7 8541
-1919 8564 -1919 8 0 587 596 1287 1325 l1272 1326 132 -127 c73 -69 133 -129
135 -133 1 -5 -603 -639 -1344 -1410 -1122 -1169 -1350 -1402 -1368 -1398 -11
3 -2136 479 -4721 1058 -2585 578 -4704 1055 -4708 1059 -7 6 3619 3678 3633
3680 3 0 65 -60 137 -132z m23030 -2729 c98 -17 179 -32 179 -33 1 0 -174
-1009 -390 -2241 -361 -2066 -393 -2240 -411 -2244 -11 -2 -2314 -382 -5118
-845 -4795 -792 -5098 -841 -5093 -822 4 17 816 2572 1062 3342 l54 171 178
-57 c122 -39 177 -61 176 -71 -1 -8 -209 -668 -464 -1467 -254 -799 -460
-1455 -458 -1458 4 -4 9348 1534 9355 1540 1 1 167 949 370 2109 202 1159 371
2107 375 2107 5 0 88 -14 185 -31z"/>
<path d="M61660 46810 l0 -1830 378 0 c519 0 756 14 1037 61 234 39 433 99
610 184 151 72 254 144 360 250 213 212 341 493 402 885 26 163 25 688 0 870
-61 436 -194 748 -408 960 -263 260 -713 403 -1384 440 -104 5 -371 10 -592
10 l-403 0 0 -1830z"/>
<path d="M82790 46810 l0 -1830 378 0 c519 0 756 14 1037 61 234 39 433 99
610 184 151 72 254 144 360 250 213 212 341 493 402 885 26 163 25 688 0 870
-61 436 -194 748 -408 960 -263 260 -713 403 -1384 440 -104 5 -371 10 -592
10 l-403 0 0 -1830z"/>
<path d="M28436 48170 c-4 -14 -366 -1316 -805 -2895 l-797 -2870 1515 -3
c833 -1 1516 0 1518 2 3 3 -1405 5728 -1421 5781 -2 6 -7 -1 -10 -15z"/>
<path d="M38750 43900 l0 -4740 248 0 c763 0 1294 85 1807 287 1181 466 1896
1521 2129 3143 65 452 81 707 81 1310 0 614 -17 882 -85 1361 -224 1571 -882
2578 -1996 3054 -528 226 -1114 325 -1931 325 l-253 0 0 -4740z"/>
<path d="M101126 48170 c-4 -14 -366 -1316 -805 -2895 l-797 -2870 1515 -3
c833 -1 1516 0 1518 2 3 3 -1405 5728 -1421 5781 -2 6 -7 -1 -10 -15z"/>
<path d="M79195 29284 c-222 -30 -393 -90 -534 -187 -349 -239 -608 -718 -746
-1380 -109 -521 -146 -1206 -104 -1892 66 -1070 357 -1830 831 -2168 306 -219
754 -266 1111 -117 510 212 854 835 991 1792 50 349 61 526 60 1033 0 558 -16
794 -84 1190 -170 992 -580 1586 -1182 1709 -77 16 -285 28 -343 20z"/>
<path d="M39230 28085 l0 -1078 343 6 c444 8 617 30 841 111 137 49 227 105
321 200 168 169 245 404 245 744 0 559 -178 866 -575 996 -207 67 -370 86
-812 93 l-363 6 0 -1078z"/>
<path d="M32720 27910 l0 -1252 333 5 c238 4 361 10 435 22 579 92 821 396
862 1081 28 466 -57 850 -235 1067 -128 155 -343 256 -645 302 -72 11 -206 18
-427 22 l-323 6 0 -1253z"/>
<path d="M63158 27187 c-273 -930 -496 -1693 -494 -1694 2 -2 426 -2 943 -1
l940 3 -440 1685 c-241 927 -442 1688 -446 1692 -3 4 -230 -754 -503 -1685z"/>
<path d="M70060 26373 l0 -2786 263 6 c456 11 748 61 1057 184 268 105 463
236 666 445 162 166 251 297 365 533 251 523 349 1230 288 2075 -34 469 -134
876 -299 1215 -371 764 -1055 1115 -2177 1115 l-163 0 0 -2787z"/>
<path d="M48515 101120 c10 -11 20 -20 23 -20 3 0 -3 9 -13 20 -10 11 -20 20
-23 20 -3 0 3 -9 13 -20z"/>
<path d="M48602 101008 c135 -186 259 -404 344 -603 85 -200 141 -381 283
-920 34 -126 65 -240 70 -251 8 -18 61 -41 61 -27 0 11 -173 649 -210 776 -97
331 -250 645 -445 912 -41 55 -94 123 -120 150 -42 46 -41 43 17 -37z"/>
<path d="M57475 100645 c60 -134 125 -307 160 -425 80 -272 98 -328 132 -403
42 -91 54 -97 18 -8 -14 34 -50 148 -81 252 -30 105 -72 237 -93 292 -45 119
-138 328 -152 342 -6 6 1 -17 16 -50z"/>
<path d="M59900 96585 c0 -5 5 -17 10 -25 5 -8 10 -10 10 -5 0 6 -5 17 -10 25
-5 8 -10 11 -10 5z"/>
<path d="M59920 96535 c0 -5 5 -17 10 -25 5 -8 10 -10 10 -5 0 6 -5 17 -10 25
-5 8 -10 11 -10 5z"/>
<path d="M59940 96485 c0 -5 5 -17 10 -25 5 -8 10 -10 10 -5 0 6 -5 17 -10 25
-5 8 -10 11 -10 5z"/>
<path d="M60010 96305 c0 -5 5 -17 10 -25 5 -8 10 -10 10 -5 0 6 -5 17 -10 25
-5 8 -10 11 -10 5z"/>
<path d="M60040 96225 c0 -5 5 -17 10 -25 5 -8 10 -10 10 -5 0 6 -5 17 -10 25
-5 8 -10 11 -10 5z"/>
<path d="M60070 96145 c0 -5 5 -17 10 -25 5 -8 10 -10 10 -5 0 6 -5 17 -10 25
-5 8 -10 11 -10 5z"/>
<path d="M60100 96065 c0 -5 5 -17 10 -25 5 -8 10 -10 10 -5 0 6 -5 17 -10 25
-5 8 -10 11 -10 5z"/>
<path d="M60136 95970 c4 -14 13 -38 20 -55 11 -24 13 -25 8 -5 -4 14 -13 39
-20 55 -11 24 -13 25 -8 5z"/>
<path d="M60183 95836 c3 -7 40 -118 81 -246 68 -208 120 -378 320 -1050 30
-102 55 -179 55 -172 1 14 -90 328 -215 744 -91 303 -233 738 -240 738 -4 0
-4 -6 -1 -14z"/>
<path d="M28530 86834 c243 -213 439 -438 620 -713 40 -61 75 -109 77 -107 7
6 -15 82 -49 174 -26 71 -45 99 -123 190 -153 178 -317 325 -495 446 l-85 58
55 -48z"/>
<path d="M47194 5548 l-29 -33 33 29 c17 17 32 31 32 33 0 8 -8 1 -36 -29z"/>
<path d="M47099 5443 l-34 -38 38 34 c34 33 42 41 34 41 -2 0 -19 -17 -38 -37z"/>
<path d="M47005 5338 l-40 -43 43 40 c23 21 42 40 42 42 0 8 -9 0 -45 -39z"/>
<path d="M46915 5238 l-40 -43 43 40 c23 21 42 40 42 42 0 8 -9 0 -45 -39z"/>
<path d="M46673 4968 c-356 -399 -587 -663 -563 -643 27 23 772 865 765 865
-2 0 -93 -100 -202 -222z"/>
<path d="M63271 4114 c0 -11 3 -14 6 -6 3 7 2 16 -1 19 -3 4 -6 -2 -5 -13z"/>
</g>
</svg>
